<svg xmlns="http://www.w3.org/2000/svg" width="1587.402" height="831.496" viewBox="0 0 420 220" xmlns:v="https://vecta.io/nano"><style><![CDATA[.B{stroke-opacity:0}.C{stroke-linejoin:round}]]></style><defs><marker  refX="0" refY="0" orient="auto-start-reverse" markerWidth="1" markerHeight="1" viewBox="0 0 1 1" overflow="visible"><path d="M1 0l-3 3h-2l3-3-3-3h2z" fill="context-stroke" fill-rule="evenodd" stroke="none"/></marker><linearGradient id="B" x1="108.961" y1="91.469" x2="92.015" y2="91.469" href="#G"><stop offset="0" stop-color="purple"/><stop offset="1" stop-color="#6e8fa3"/></linearGradient><linearGradient id="C" x1="101.672" y1="85.091" x2="94.02" y2="93.473" href="#G"><stop offset="0" stop-color="purple"/><stop offset="1" stop-color="#6e8fa3"/></linearGradient><linearGradient id="D" x1="85.808" y1="117.245" x2="101.269" y2="104.618" href="#G"><stop offset="0" stop-color="#6e8fa3"/><stop offset="1" stop-color="purple"/></linearGradient><linearGradient id="E" x1="145.848" y1="181.923" x2="166.462" y2="160.793" href="#G"><stop offset="0" stop-color="#fa4900"/><stop offset="1" stop-color="#ffd01d"/></linearGradient><path id="F" d="M95.752 133.243s-.697-6.823-2.945-9.071-9.071-2.945-9.071-2.945 6.821-.463 9.071-2.67c2.332-2.288 2.945-9.346 2.945-9.346s.379 7.055 2.67 9.346 9.346 2.67 9.346 2.67-7.059.614-9.346 2.945c-2.207 2.25-2.67 9.071-2.67 9.071z"/><linearGradient id="G" gradientUnits="userSpaceOnUse"/></defs><g class="C B"><path d="M43.144 71.669v120.604h74.218V172.57H66.027V71.669zm229.368 29.51c-11.604 0-20.616 7.51-27.037 22.53v-20.675h-18.378v89.238h20.145v-45.856c0-9.248 1.973-16.169 5.92-20.763s8.541-6.892 13.783-6.892c3.829 0 7.098 1.502 9.808 4.506 2.71 2.945 4.064 7.363 4.064 13.253v55.752h20.145v-57.607c0-12.429-2.798-21.117-8.394-26.065-5.537-4.948-12.223-7.422-20.057-7.422zm79.431 0c-11.309 0-19.821 2.769-25.534 8.305-5.714 5.478-8.571 12.164-8.571 20.057 0 14.137 9.012 22.943 27.037 26.418l16.257 3.092c2.651.53 4.948 1.561 6.892 3.092s2.916 3.476 2.916 5.832c0 7.363-6.244 11.044-18.731 11.044-9.837 0-16.198-3.622-19.085-10.868l-18.908 3.623c2.121 7.54 6.685 13.165 13.695 16.875 7.01 3.652 15.079 5.478 24.209 5.478 10.544 0 19.644-2.415 27.302-7.245 7.657-4.889 11.486-12.252 11.486-22.089 0-14.019-7.451-22.56-22.354-25.623l-19.173-3.976c-8.659-1.767-12.988-4.977-12.988-9.63 0-6.715 5.36-10.072 16.081-10.072 8.835 0 14.196 3.357 16.081 10.072l17.936-3.623c-4.182-13.842-15.698-20.764-34.547-20.764zm-220.451 22.938c-3.353 6.907-5.03 14.841-5.03 23.802 0 14.196 3.77 25.446 11.309 33.751s17.494 12.458 29.864 12.458c10.308 0 18.878-2.621 25.711-7.864s11.427-11.899 13.783-19.968l-18.201-2.474c-3.475 9.66-10.19 14.49-20.145 14.49-5.125 0-9.395-1.355-12.811-4.064s-5.714-5.89-6.892-9.542c-.833-2.717-1.355-6.103-1.568-10.156h-16.02z" fill="#5d6c53" stroke="#2ff" stroke-width="125.614" paint-order="markers stroke fill"/><g stroke="#8b818b"><path d="M106.492 24.467l-38.25 98.299h12.476l11.653-30.298h38.799l2.249 5.78h12.785l-28.607-73.78zm5.347 12.75l1.371 4.799 1.919 5.895 1.371 3.975L127.468 81.5H96.484l11.105-29.613 2.056-6.307 2.194-8.363z" stroke-width="215.9"/><path d="M67.758 59.644Q55.749 69.971 43.02 73.814l-2.162-5.764q12.73-3.603 22.817-12.249-8.406-9.127-11.288-21.136H40.858v-4.563h23.057v-9.127h5.284q2.402.48.24 1.921v7.205h23.297v4.563H81.449q-1.921 11.288-10.088 21.136 8.406 7.446 22.337 11.048l-2.162 5.764q-12.249-3.122-23.778-12.97zm-.24-7.686q7.205-8.646 8.887-17.293H57.671q1.441 8.166 9.847 17.293z" stroke-width="96.927"/></g></g><g transform="translate(-62.447 -101.938)" stroke="#8b818b" class="C B"><path d="M170.985 124.705l-38.618 99.244h12.596l11.765-30.59H195.9l2.231 5.735h12.908l-28.842-74.388zm5.398 12.873l1.384 4.845 1.938 5.952 1.384 4.014 11.073 29.897h-31.282l11.212-29.897 2.076-6.367 2.214-8.443z" fill="url(#E)" stroke-width="217.975"/><path d="M131.879 160.219q-12.124 10.427-24.976 14.307l-2.182-5.82q12.852-3.637 23.036-12.367-8.487-9.215-11.397-21.339H104.72v-4.607h23.279v-9.215h5.335q2.425.485.242 1.94v7.275h23.521V135h-11.397q-1.94 11.397-10.185 21.339 8.487 7.517 22.551 11.154l-2.182 5.82q-12.367-3.152-24.006-13.094zm-.242-7.76q7.275-8.73 8.972-17.459h-18.914q1.455 8.245 9.942 17.459z" fill="url(#E)" stroke-width="97.859"/></g><g class="C"><path d="M131.267 126.821h16.358v38.776h-16.358z" fill="#5d6c53" stroke="#2ff" stroke-width="15.047" paint-order="markers stroke fill" class="B"/><path d="M170.244 108.244a35.381 28.338 0 0 1 33.802 20.122 35.381 28.338 0 0 1-33.802 20.122 35.381 28.338 0 0 1-33.802-20.122 35.381 28.338 0 0 1 33.802-20.122z" fill="#fff" fill-opacity="0" stroke="#5d6c53" stroke-width="12.732"/></g><g transform="matrix(.354413 0 0 .354413 129.83189 86.558262)"><g stroke="#000" class="B"><circle cx="105" cy="105" r="44.823" fill="#d40000" stroke-width=".265"/><circle cx="105" cy="105" r="33.378" fill="#fff" stroke-width=".197"/><path d="M76.703 60.991A84.34 67.551 0 0 0 24.425 105a84.34 67.551 0 0 0 52.278 44.01 52.321 52.321 0 0 1 0-88.019zm56.593 0a52.321 52.321 0 0 1 0 88.019A84.34 67.551 0 0 0 185.575 105a84.34 67.551 0 0 0-52.278-44.009z" fill="#f60" stroke-width=".286"/></g><path d="M113.274 126.286s-1.385-13.554-5.851-18.019-18.019-5.851-18.019-5.851 13.55-.919 18.019-5.304c4.632-4.544 5.851-18.566 5.851-18.566s.753 14.015 5.304 18.566 18.566 5.304 18.566 5.304-14.021 1.219-18.566 5.851c-4.385 4.469-5.304 18.019-5.304 18.019z" fill="url(#C)"/><use href="#F" fill="url(#B)"/><use href="#F" x="-4.896" y="-31.952" fill="url(#D)"/></g></svg>